<?xml version="1.0" encoding="utf-8" standalone="no"?>
<!DOCTYPE svg PUBLIC "-//W3C//DTD SVG 1.1//EN"
  "http://www.w3.org/Graphics/SVG/1.1/DTD/svg11.dtd">
<svg xmlns:xlink="http://www.w3.org/1999/xlink" width="576pt" height="432pt" viewBox="0 0 576 432" xmlns="http://www.w3.org/2000/svg" version="1.1">
 <metadata>
  <rdf:RDF xmlns:dc="http://purl.org/dc/elements/1.1/" xmlns:cc="http://creativecommons.org/ns#" xmlns:rdf="http://www.w3.org/1999/02/22-rdf-syntax-ns#">
   <cc:Work>
    <dc:type rdf:resource="http://purl.org/dc/dcmitype/StillImage"/>
    <dc:date>2025-04-01T11:33:03.068097</dc:date>
    <dc:format>image/svg+xml</dc:format>
    <dc:creator>
     <cc:Agent>
      <dc:title>Matplotlib v3.9.0, https://matplotlib.org/</dc:title>
     </cc:Agent>
    </dc:creator>
   </cc:Work>
  </rdf:RDF>
 </metadata>
 <defs>
  <style type="text/css">*{stroke-linejoin: round; stroke-linecap: butt}</style>
 </defs>
 <g id="figure_1">
  <g id="patch_1">
   <path d="M 0 432 
L 576 432 
L 576 0 
L 0 0 
z
" style="fill: #ffffff"/>
  </g>
  <g id="patch_2">
   <path d="M 128.88 384.48 
L 461.52 384.48 
L 461.52 51.84 
L 128.88 51.84 
z
" style="fill: #ffffff"/>
  </g>
  <g id="pane3d_1">
   <g id="patch_3">
    <path d="M 263.810307 236.955175 
L 440.851553 273.555138 
L 445.139801 125.296893 
L 262.777611 95.45855 
" style="fill: #f2f2f2; opacity: 0.5; stroke: #f2f2f2; stroke-linejoin: miter"/>
   </g>
  </g>
  <g id="pane3d_2">
   <g id="patch_4">
    <path d="M 263.810307 236.955175 
L 152.728604 302.957479 
L 148.074256 149.334698 
L 262.777611 95.45855 
" style="fill: #e6e6e6; opacity: 0.5; stroke: #e6e6e6; stroke-linejoin: miter"/>
   </g>
  </g>
  <g id="pane3d_3">
   <g id="patch_5">
    <path d="M 263.810307 236.955175 
L 152.728604 302.957479 
L 341.420795 347.266363 
L 440.851553 273.555138 
" style="fill: #ececec; opacity: 0.5; stroke: #ececec; stroke-linejoin: miter"/>
   </g>
  </g>
  <g id="grid3d_1">
   <g id="Line3DCollection_1">
    <path d="M 432.585372 279.683125 
L 254.530777 242.468867 
L 253.220154 99.947686 
" style="fill: none; stroke: #b0b0b0; stroke-width: 0.8"/>
    <path d="M 415.835472 292.100365 
L 235.752491 253.626511 
L 233.865745 109.038449 
" style="fill: none; stroke: #b0b0b0; stroke-width: 0.8"/>
    <path d="M 398.498069 304.953141 
L 216.350708 265.154624 
L 213.849424 118.440112 
" style="fill: none; stroke: #b0b0b0; stroke-width: 0.8"/>
    <path d="M 380.541702 318.264774 
L 196.29385 277.071968 
L 193.136644 128.168901 
" style="fill: none; stroke: #b0b0b0; stroke-width: 0.8"/>
    <path d="M 361.93262 332.060286 
L 175.548172 289.398594 
L 171.690411 138.242193 
" style="fill: none; stroke: #b0b0b0; stroke-width: 0.8"/>
    <path d="M 342.634577 346.366547 
L 154.077567 302.155954 
L 149.471067 148.678616 
" style="fill: none; stroke: #b0b0b0; stroke-width: 0.8"/>
   </g>
  </g>
  <g id="grid3d_2">
   <g id="Line3DCollection_2">
    <path d="M 279.341113 98.168692 
L 279.913274 240.284162 
L 169.809202 306.968361 
" style="fill: none; stroke: #b0b0b0; stroke-width: 0.8"/>
    <path d="M 298.486078 101.301217 
L 298.520257 244.130807 
L 189.566209 311.607721 
" style="fill: none; stroke: #b0b0b0; stroke-width: 0.8"/>
    <path d="M 317.854898 104.470369 
L 317.33862 248.021152 
L 209.569911 316.30501 
" style="fill: none; stroke: #b0b0b0; stroke-width: 0.8"/>
    <path d="M 337.451524 107.676795 
L 336.371986 251.955944 
L 229.824958 321.06132 
" style="fill: none; stroke: #b0b0b0; stroke-width: 0.8"/>
    <path d="M 357.279998 110.921156 
L 355.62406 255.93595 
L 250.336117 325.87777 
" style="fill: none; stroke: #b0b0b0; stroke-width: 0.8"/>
    <path d="M 377.344459 114.204129 
L 375.098635 259.961953 
L 271.108276 330.755508 
" style="fill: none; stroke: #b0b0b0; stroke-width: 0.8"/>
    <path d="M 397.649145 117.526409 
L 394.799589 264.034757 
L 292.146449 335.695713 
" style="fill: none; stroke: #b0b0b0; stroke-width: 0.8"/>
    <path d="M 418.198396 120.888704 
L 414.730893 268.155181 
L 313.455779 340.69959 
" style="fill: none; stroke: #b0b0b0; stroke-width: 0.8"/>
    <path d="M 438.996658 124.291743 
L 434.896611 272.324066 
L 335.041542 345.76838 
" style="fill: none; stroke: #b0b0b0; stroke-width: 0.8"/>
   </g>
  </g>
  <g id="grid3d_3">
   <g id="Line3DCollection_3">
    <path d="M 152.268362 287.766608 
L 263.707931 222.927965 
L 441.276072 258.878198 
" style="fill: none; stroke: #b0b0b0; stroke-width: 0.8"/>
    <path d="M 151.748429 270.605526 
L 263.592346 207.090839 
L 441.755522 242.302071 
" style="fill: none; stroke: #b0b0b0; stroke-width: 0.8"/>
    <path d="M 151.224815 253.32297 
L 263.476015 191.151653 
L 442.238231 225.613296 
" style="fill: none; stroke: #b0b0b0; stroke-width: 0.8"/>
    <path d="M 150.697481 235.917646 
L 263.358933 175.109416 
L 442.724232 208.81072 
" style="fill: none; stroke: #b0b0b0; stroke-width: 0.8"/>
    <path d="M 150.166388 218.388242 
L 263.241091 158.963126 
L 443.213558 191.893175 
" style="fill: none; stroke: #b0b0b0; stroke-width: 0.8"/>
    <path d="M 149.631496 200.733426 
L 263.122483 142.711768 
L 443.706244 174.859477 
" style="fill: none; stroke: #b0b0b0; stroke-width: 0.8"/>
    <path d="M 149.092763 182.951848 
L 263.0031 126.354312 
L 444.202324 157.708426 
" style="fill: none; stroke: #b0b0b0; stroke-width: 0.8"/>
    <path d="M 148.550148 165.042137 
L 262.882935 109.889717 
L 444.701833 140.438806 
" style="fill: none; stroke: #b0b0b0; stroke-width: 0.8"/>
   </g>
  </g>
  <g id="axis3d_1">
   <g id="line2d_1">
    <path d="M 440.851553 273.555138 
L 341.420795 347.266363 
" style="fill: none; stroke: #000000; stroke-width: 0.8; stroke-linecap: square"/>
   </g>
   <g id="xtick_1">
    <g id="line2d_2">
     <path d="M 431.084005 279.369332 
L 435.592036 280.311532 
" style="fill: none; stroke: #000000; stroke-width: 0.8; stroke-linecap: square"/>
    </g>
    <g id="text_1">
     <!-- −10 -->
     <g transform="translate(434.253445 299.527202) scale(0.1 -0.1)">
      <defs>
       <path id="DejaVuSans-2212" d="M 678 2272 
L 4684 2272 
L 4684 1741 
L 678 1741 
L 678 2272 
z
" transform="scale(0.015625)"/>
       <path id="DejaVuSans-31" d="M 794 531 
L 1825 531 
L 1825 4091 
L 703 3866 
L 703 4441 
L 1819 4666 
L 2450 4666 
L 2450 531 
L 3481 531 
L 3481 0 
L 794 0 
L 794 531 
z
" transform="scale(0.015625)"/>
       <path id="DejaVuSans-30" d="M 2034 4250 
Q 1547 4250 1301 3770 
Q 1056 3291 1056 2328 
Q 1056 1369 1301 889 
Q 1547 409 2034 409 
Q 2525 409 2770 889 
Q 3016 1369 3016 2328 
Q 3016 3291 2770 3770 
Q 2525 4250 2034 4250 
z
M 2034 4750 
Q 2819 4750 3233 4129 
Q 3647 3509 3647 2328 
Q 3647 1150 3233 529 
Q 2819 -91 2034 -91 
Q 1250 -91 836 529 
Q 422 1150 422 2328 
Q 422 3509 836 4129 
Q 1250 4750 2034 4750 
z
" transform="scale(0.015625)"/>
      </defs>
      <use xlink:href="#DejaVuSans-2212"/>
      <use xlink:href="#DejaVuSans-31" x="83.789062"/>
      <use xlink:href="#DejaVuSans-30" x="147.412109"/>
     </g>
    </g>
   </g>
   <g id="xtick_2">
    <g id="line2d_3">
     <path d="M 414.315661 291.775665 
L 418.879141 292.75063 
" style="fill: none; stroke: #000000; stroke-width: 0.8; stroke-linecap: square"/>
    </g>
    <g id="text_2">
     <!-- −5 -->
     <g transform="translate(420.867753 312.176622) scale(0.1 -0.1)">
      <defs>
       <path id="DejaVuSans-35" d="M 691 4666 
L 3169 4666 
L 3169 4134 
L 1269 4134 
L 1269 2991 
Q 1406 3038 1543 3061 
Q 1681 3084 1819 3084 
Q 2600 3084 3056 2656 
Q 3513 2228 3513 1497 
Q 3513 744 3044 326 
Q 2575 -91 1722 -91 
Q 1428 -91 1123 -41 
Q 819 9 494 109 
L 494 744 
Q 775 591 1075 516 
Q 1375 441 1709 441 
Q 2250 441 2565 725 
Q 2881 1009 2881 1497 
Q 2881 1984 2565 2268 
Q 2250 2553 1709 2553 
Q 1456 2553 1204 2497 
Q 953 2441 691 2322 
L 691 4666 
z
" transform="scale(0.015625)"/>
      </defs>
      <use xlink:href="#DejaVuSans-2212"/>
      <use xlink:href="#DejaVuSans-35" x="83.789062"/>
     </g>
    </g>
   </g>
   <g id="xtick_3">
    <g id="line2d_4">
     <path d="M 396.959432 304.616954 
L 401.579511 305.626424 
" style="fill: none; stroke: #000000; stroke-width: 0.8; stroke-linecap: square"/>
    </g>
    <g id="text_3">
     <!-- 0 -->
     <g transform="translate(407.908579 325.270476) scale(0.1 -0.1)">
      <use xlink:href="#DejaVuSans-30"/>
     </g>
    </g>
   </g>
   <g id="xtick_4">
    <g id="line2d_5">
     <path d="M 378.983851 317.916481 
L 383.661698 318.962321 
" style="fill: none; stroke: #000000; stroke-width: 0.8; stroke-linecap: square"/>
    </g>
    <g id="text_4">
     <!-- 5 -->
     <g transform="translate(390.146262 338.832604) scale(0.1 -0.1)">
      <use xlink:href="#DejaVuSans-35"/>
     </g>
    </g>
   </g>
   <g id="xtick_5">
    <g id="line2d_6">
     <path d="M 360.355163 331.69922 
L 365.091963 332.783431 
" style="fill: none; stroke: #000000; stroke-width: 0.8; stroke-linecap: square"/>
    </g>
    <g id="text_5">
     <!-- 10 -->
     <g transform="translate(368.555896 352.888586) scale(0.1 -0.1)">
      <use xlink:href="#DejaVuSans-31"/>
      <use xlink:href="#DejaVuSans-30" x="63.623047"/>
     </g>
    </g>
   </g>
   <g id="xtick_6">
    <g id="line2d_7">
     <path d="M 341.037116 345.991993 
L 345.834068 347.116725 
" style="fill: none; stroke: #000000; stroke-width: 0.8; stroke-linecap: square"/>
    </g>
    <g id="text_6">
     <!-- 15 -->
     <g transform="translate(349.463997 367.465895) scale(0.1 -0.1)">
      <use xlink:href="#DejaVuSans-31"/>
      <use xlink:href="#DejaVuSans-35" x="63.623047"/>
     </g>
    </g>
   </g>
   <g id="text_7">
    <!-- a* (Green-Red) -->
    <g transform="translate(392.64027 361.005135) rotate(-36.550732) scale(0.1 -0.1)">
     <defs>
      <path id="DejaVuSans-61" d="M 2194 1759 
Q 1497 1759 1228 1600 
Q 959 1441 959 1056 
Q 959 750 1161 570 
Q 1363 391 1709 391 
Q 2188 391 2477 730 
Q 2766 1069 2766 1631 
L 2766 1759 
L 2194 1759 
z
M 3341 1997 
L 3341 0 
L 2766 0 
L 2766 531 
Q 2569 213 2275 61 
Q 1981 -91 1556 -91 
Q 1019 -91 701 211 
Q 384 513 384 1019 
Q 384 1609 779 1909 
Q 1175 2209 1959 2209 
L 2766 2209 
L 2766 2266 
Q 2766 2663 2505 2880 
Q 2244 3097 1772 3097 
Q 1472 3097 1187 3025 
Q 903 2953 641 2809 
L 641 3341 
Q 956 3463 1253 3523 
Q 1550 3584 1831 3584 
Q 2591 3584 2966 3190 
Q 3341 2797 3341 1997 
z
" transform="scale(0.015625)"/>
      <path id="DejaVuSans-2a" d="M 3009 3897 
L 1888 3291 
L 3009 2681 
L 2828 2375 
L 1778 3009 
L 1778 1831 
L 1422 1831 
L 1422 3009 
L 372 2375 
L 191 2681 
L 1313 3291 
L 191 3897 
L 372 4206 
L 1422 3572 
L 1422 4750 
L 1778 4750 
L 1778 3572 
L 2828 4206 
L 3009 3897 
z
" transform="scale(0.015625)"/>
      <path id="DejaVuSans-20" transform="scale(0.015625)"/>
      <path id="DejaVuSans-28" d="M 1984 4856 
Q 1566 4138 1362 3434 
Q 1159 2731 1159 2009 
Q 1159 1288 1364 580 
Q 1569 -128 1984 -844 
L 1484 -844 
Q 1016 -109 783 600 
Q 550 1309 550 2009 
Q 550 2706 781 3412 
Q 1013 4119 1484 4856 
L 1984 4856 
z
" transform="scale(0.015625)"/>
      <path id="DejaVuSans-47" d="M 3809 666 
L 3809 1919 
L 2778 1919 
L 2778 2438 
L 4434 2438 
L 4434 434 
Q 4069 175 3628 42 
Q 3188 -91 2688 -91 
Q 1594 -91 976 548 
Q 359 1188 359 2328 
Q 359 3472 976 4111 
Q 1594 4750 2688 4750 
Q 3144 4750 3555 4637 
Q 3966 4525 4313 4306 
L 4313 3634 
Q 3963 3931 3569 4081 
Q 3175 4231 2741 4231 
Q 1884 4231 1454 3753 
Q 1025 3275 1025 2328 
Q 1025 1384 1454 906 
Q 1884 428 2741 428 
Q 3075 428 3337 486 
Q 3600 544 3809 666 
z
" transform="scale(0.015625)"/>
      <path id="DejaVuSans-72" d="M 2631 2963 
Q 2534 3019 2420 3045 
Q 2306 3072 2169 3072 
Q 1681 3072 1420 2755 
Q 1159 2438 1159 1844 
L 1159 0 
L 581 0 
L 581 3500 
L 1159 3500 
L 1159 2956 
Q 1341 3275 1631 3429 
Q 1922 3584 2338 3584 
Q 2397 3584 2469 3576 
Q 2541 3569 2628 3553 
L 2631 2963 
z
" transform="scale(0.015625)"/>
      <path id="DejaVuSans-65" d="M 3597 1894 
L 3597 1613 
L 953 1613 
Q 991 1019 1311 708 
Q 1631 397 2203 397 
Q 2534 397 2845 478 
Q 3156 559 3463 722 
L 3463 178 
Q 3153 47 2828 -22 
Q 2503 -91 2169 -91 
Q 1331 -91 842 396 
Q 353 884 353 1716 
Q 353 2575 817 3079 
Q 1281 3584 2069 3584 
Q 2775 3584 3186 3129 
Q 3597 2675 3597 1894 
z
M 3022 2063 
Q 3016 2534 2758 2815 
Q 2500 3097 2075 3097 
Q 1594 3097 1305 2825 
Q 1016 2553 972 2059 
L 3022 2063 
z
" transform="scale(0.015625)"/>
      <path id="DejaVuSans-6e" d="M 3513 2113 
L 3513 0 
L 2938 0 
L 2938 2094 
Q 2938 2591 2744 2837 
Q 2550 3084 2163 3084 
Q 1697 3084 1428 2787 
Q 1159 2491 1159 1978 
L 1159 0 
L 581 0 
L 581 3500 
L 1159 3500 
L 1159 2956 
Q 1366 3272 1645 3428 
Q 1925 3584 2291 3584 
Q 2894 3584 3203 3211 
Q 3513 2838 3513 2113 
z
" transform="scale(0.015625)"/>
      <path id="DejaVuSans-2d" d="M 313 2009 
L 1997 2009 
L 1997 1497 
L 313 1497 
L 313 2009 
z
" transform="scale(0.015625)"/>
      <path id="DejaVuSans-52" d="M 2841 2188 
Q 3044 2119 3236 1894 
Q 3428 1669 3622 1275 
L 4263 0 
L 3584 0 
L 2988 1197 
Q 2756 1666 2539 1819 
Q 2322 1972 1947 1972 
L 1259 1972 
L 1259 0 
L 628 0 
L 628 4666 
L 2053 4666 
Q 2853 4666 3247 4331 
Q 3641 3997 3641 3322 
Q 3641 2881 3436 2590 
Q 3231 2300 2841 2188 
z
M 1259 4147 
L 1259 2491 
L 2053 2491 
Q 2509 2491 2742 2702 
Q 2975 2913 2975 3322 
Q 2975 3731 2742 3939 
Q 2509 4147 2053 4147 
L 1259 4147 
z
" transform="scale(0.015625)"/>
      <path id="DejaVuSans-64" d="M 2906 2969 
L 2906 4863 
L 3481 4863 
L 3481 0 
L 2906 0 
L 2906 525 
Q 2725 213 2448 61 
Q 2172 -91 1784 -91 
Q 1150 -91 751 415 
Q 353 922 353 1747 
Q 353 2572 751 3078 
Q 1150 3584 1784 3584 
Q 2172 3584 2448 3432 
Q 2725 3281 2906 2969 
z
M 947 1747 
Q 947 1113 1208 752 
Q 1469 391 1925 391 
Q 2381 391 2643 752 
Q 2906 1113 2906 1747 
Q 2906 2381 2643 2742 
Q 2381 3103 1925 3103 
Q 1469 3103 1208 2742 
Q 947 2381 947 1747 
z
" transform="scale(0.015625)"/>
      <path id="DejaVuSans-29" d="M 513 4856 
L 1013 4856 
Q 1481 4119 1714 3412 
Q 1947 2706 1947 2009 
Q 1947 1309 1714 600 
Q 1481 -109 1013 -844 
L 513 -844 
Q 928 -128 1133 580 
Q 1338 1288 1338 2009 
Q 1338 2731 1133 3434 
Q 928 4138 513 4856 
z
" transform="scale(0.015625)"/>
     </defs>
     <use xlink:href="#DejaVuSans-61"/>
     <use xlink:href="#DejaVuSans-2a" x="61.279297"/>
     <use xlink:href="#DejaVuSans-20" x="111.279297"/>
     <use xlink:href="#DejaVuSans-28" x="143.066406"/>
     <use xlink:href="#DejaVuSans-47" x="182.080078"/>
     <use xlink:href="#DejaVuSans-72" x="259.570312"/>
     <use xlink:href="#DejaVuSans-65" x="298.433594"/>
     <use xlink:href="#DejaVuSans-65" x="359.957031"/>
     <use xlink:href="#DejaVuSans-6e" x="421.480469"/>
     <use xlink:href="#DejaVuSans-2d" x="484.859375"/>
     <use xlink:href="#DejaVuSans-52" x="520.943359"/>
     <use xlink:href="#DejaVuSans-65" x="585.925781"/>
     <use xlink:href="#DejaVuSans-64" x="647.449219"/>
     <use xlink:href="#DejaVuSans-29" x="710.925781"/>
    </g>
   </g>
  </g>
  <g id="axis3d_2">
   <g id="line2d_8">
    <path d="M 152.728604 302.957479 
L 341.420795 347.266363 
" style="fill: none; stroke: #000000; stroke-width: 0.8; stroke-linecap: square"/>
   </g>
   <g id="xtick_7">
    <g id="line2d_9">
     <path d="M 170.775522 306.383112 
L 167.872012 308.141614 
" style="fill: none; stroke: #000000; stroke-width: 0.8; stroke-linecap: square"/>
    </g>
    <g id="text_8">
     <!-- −40 -->
     <g transform="translate(151.464171 329.421925) scale(0.1 -0.1)">
      <defs>
       <path id="DejaVuSans-34" d="M 2419 4116 
L 825 1625 
L 2419 1625 
L 2419 4116 
z
M 2253 4666 
L 3047 4666 
L 3047 1625 
L 3713 1625 
L 3713 1100 
L 3047 1100 
L 3047 0 
L 2419 0 
L 2419 1100 
L 313 1100 
L 313 1709 
L 2253 4666 
z
" transform="scale(0.015625)"/>
      </defs>
      <use xlink:href="#DejaVuSans-2212"/>
      <use xlink:href="#DejaVuSans-34" x="83.789062"/>
      <use xlink:href="#DejaVuSans-30" x="147.412109"/>
     </g>
    </g>
   </g>
   <g id="xtick_8">
    <g id="line2d_10">
     <path d="M 190.52296 311.01519 
L 187.648174 312.795589 
" style="fill: none; stroke: #000000; stroke-width: 0.8; stroke-linecap: square"/>
    </g>
    <g id="text_9">
     <!-- −30 -->
     <g transform="translate(171.261486 334.174737) scale(0.1 -0.1)">
      <defs>
       <path id="DejaVuSans-33" d="M 2597 2516 
Q 3050 2419 3304 2112 
Q 3559 1806 3559 1356 
Q 3559 666 3084 287 
Q 2609 -91 1734 -91 
Q 1441 -91 1130 -33 
Q 819 25 488 141 
L 488 750 
Q 750 597 1062 519 
Q 1375 441 1716 441 
Q 2309 441 2620 675 
Q 2931 909 2931 1356 
Q 2931 1769 2642 2001 
Q 2353 2234 1838 2234 
L 1294 2234 
L 1294 2753 
L 1863 2753 
Q 2328 2753 2575 2939 
Q 2822 3125 2822 3475 
Q 2822 3834 2567 4026 
Q 2313 4219 1838 4219 
Q 1578 4219 1281 4162 
Q 984 4106 628 3988 
L 628 4550 
Q 988 4650 1302 4700 
Q 1616 4750 1894 4750 
Q 2613 4750 3031 4423 
Q 3450 4097 3450 3541 
Q 3450 3153 3228 2886 
Q 3006 2619 2597 2516 
z
" transform="scale(0.015625)"/>
      </defs>
      <use xlink:href="#DejaVuSans-2212"/>
      <use xlink:href="#DejaVuSans-33" x="83.789062"/>
      <use xlink:href="#DejaVuSans-30" x="147.412109"/>
     </g>
    </g>
   </g>
   <g id="xtick_9">
    <g id="line2d_11">
     <path d="M 210.516779 315.70506 
L 207.671662 317.507769 
" style="fill: none; stroke: #000000; stroke-width: 0.8; stroke-linecap: square"/>
    </g>
    <g id="text_10">
     <!-- −20 -->
     <g transform="translate(191.307119 338.987164) scale(0.1 -0.1)">
      <defs>
       <path id="DejaVuSans-32" d="M 1228 531 
L 3431 531 
L 3431 0 
L 469 0 
L 469 531 
Q 828 903 1448 1529 
Q 2069 2156 2228 2338 
Q 2531 2678 2651 2914 
Q 2772 3150 2772 3378 
Q 2772 3750 2511 3984 
Q 2250 4219 1831 4219 
Q 1534 4219 1204 4116 
Q 875 4013 500 3803 
L 500 4441 
Q 881 4594 1212 4672 
Q 1544 4750 1819 4750 
Q 2544 4750 2975 4387 
Q 3406 4025 3406 3419 
Q 3406 3131 3298 2873 
Q 3191 2616 2906 2266 
Q 2828 2175 2409 1742 
Q 1991 1309 1228 531 
z
" transform="scale(0.015625)"/>
      </defs>
      <use xlink:href="#DejaVuSans-2212"/>
      <use xlink:href="#DejaVuSans-32" x="83.789062"/>
      <use xlink:href="#DejaVuSans-30" x="147.412109"/>
     </g>
    </g>
   </g>
   <g id="xtick_10">
    <g id="line2d_12">
     <path d="M 230.761618 320.453811 
L 227.947145 322.279251 
" style="fill: none; stroke: #000000; stroke-width: 0.8; stroke-linecap: square"/>
    </g>
    <g id="text_11">
     <!-- −10 -->
     <g transform="translate(211.60577 343.860334) scale(0.1 -0.1)">
      <use xlink:href="#DejaVuSans-2212"/>
      <use xlink:href="#DejaVuSans-31" x="83.789062"/>
      <use xlink:href="#DejaVuSans-30" x="147.412109"/>
     </g>
    </g>
   </g>
   <g id="xtick_11">
    <g id="line2d_13">
     <path d="M 251.262234 325.262558 
L 248.479412 327.111162 
" style="fill: none; stroke: #000000; stroke-width: 0.8; stroke-linecap: square"/>
    </g>
    <g id="text_12">
     <!-- 0 -->
     <g transform="translate(239.533354 348.795405) scale(0.1 -0.1)">
      <use xlink:href="#DejaVuSans-30"/>
     </g>
    </g>
   </g>
   <g id="xtick_12">
    <g id="line2d_14">
     <path d="M 272.023506 330.132447 
L 269.27337 332.004658 
" style="fill: none; stroke: #000000; stroke-width: 0.8; stroke-linecap: square"/>
    </g>
    <g id="text_13">
     <!-- 10 -->
     <g transform="translate(257.171379 353.793563) scale(0.1 -0.1)">
      <use xlink:href="#DejaVuSans-31"/>
      <use xlink:href="#DejaVuSans-30" x="63.623047"/>
     </g>
    </g>
   </g>
   <g id="xtick_13">
    <g id="line2d_15">
     <path d="M 293.050436 335.06465 
L 290.334055 336.960924 
" style="fill: none; stroke: #000000; stroke-width: 0.8; stroke-linecap: square"/>
    </g>
    <g id="text_14">
     <!-- 20 -->
     <g transform="translate(278.258509 358.856026) scale(0.1 -0.1)">
      <use xlink:href="#DejaVuSans-32"/>
      <use xlink:href="#DejaVuSans-30" x="63.623047"/>
     </g>
    </g>
   </g>
   <g id="xtick_14">
    <g id="line2d_16">
     <path d="M 314.348157 340.060371 
L 311.666632 341.981174 
" style="fill: none; stroke: #000000; stroke-width: 0.8; stroke-linecap: square"/>
    </g>
    <g id="text_15">
     <!-- 30 -->
     <g transform="translate(299.618697 363.984043) scale(0.1 -0.1)">
      <use xlink:href="#DejaVuSans-33"/>
      <use xlink:href="#DejaVuSans-30" x="63.623047"/>
     </g>
    </g>
   </g>
   <g id="xtick_15">
    <g id="line2d_17">
     <path d="M 335.921932 345.120845 
L 333.276401 347.066657 
" style="fill: none; stroke: #000000; stroke-width: 0.8; stroke-linecap: square"/>
    </g>
    <g id="text_16">
     <!-- 40 -->
     <g transform="translate(321.257282 369.178896) scale(0.1 -0.1)">
      <use xlink:href="#DejaVuSans-34"/>
      <use xlink:href="#DejaVuSans-30" x="63.623047"/>
     </g>
    </g>
   </g>
   <g id="text_17">
    <!-- b* (Blue-Yellow) -->
    <g transform="translate(189.22157 351.686393) rotate(-346.78517) scale(0.1 -0.1)">
     <defs>
      <path id="DejaVuSans-62" d="M 3116 1747 
Q 3116 2381 2855 2742 
Q 2594 3103 2138 3103 
Q 1681 3103 1420 2742 
Q 1159 2381 1159 1747 
Q 1159 1113 1420 752 
Q 1681 391 2138 391 
Q 2594 391 2855 752 
Q 3116 1113 3116 1747 
z
M 1159 2969 
Q 1341 3281 1617 3432 
Q 1894 3584 2278 3584 
Q 2916 3584 3314 3078 
Q 3713 2572 3713 1747 
Q 3713 922 3314 415 
Q 2916 -91 2278 -91 
Q 1894 -91 1617 61 
Q 1341 213 1159 525 
L 1159 0 
L 581 0 
L 581 4863 
L 1159 4863 
L 1159 2969 
z
" transform="scale(0.015625)"/>
      <path id="DejaVuSans-42" d="M 1259 2228 
L 1259 519 
L 2272 519 
Q 2781 519 3026 730 
Q 3272 941 3272 1375 
Q 3272 1813 3026 2020 
Q 2781 2228 2272 2228 
L 1259 2228 
z
M 1259 4147 
L 1259 2741 
L 2194 2741 
Q 2656 2741 2882 2914 
Q 3109 3088 3109 3444 
Q 3109 3797 2882 3972 
Q 2656 4147 2194 4147 
L 1259 4147 
z
M 628 4666 
L 2241 4666 
Q 2963 4666 3353 4366 
Q 3744 4066 3744 3513 
Q 3744 3084 3544 2831 
Q 3344 2578 2956 2516 
Q 3422 2416 3680 2098 
Q 3938 1781 3938 1306 
Q 3938 681 3513 340 
Q 3088 0 2303 0 
L 628 0 
L 628 4666 
z
" transform="scale(0.015625)"/>
      <path id="DejaVuSans-6c" d="M 603 4863 
L 1178 4863 
L 1178 0 
L 603 0 
L 603 4863 
z
" transform="scale(0.015625)"/>
      <path id="DejaVuSans-75" d="M 544 1381 
L 544 3500 
L 1119 3500 
L 1119 1403 
Q 1119 906 1312 657 
Q 1506 409 1894 409 
Q 2359 409 2629 706 
Q 2900 1003 2900 1516 
L 2900 3500 
L 3475 3500 
L 3475 0 
L 2900 0 
L 2900 538 
Q 2691 219 2414 64 
Q 2138 -91 1772 -91 
Q 1169 -91 856 284 
Q 544 659 544 1381 
z
M 1991 3584 
L 1991 3584 
z
" transform="scale(0.015625)"/>
      <path id="DejaVuSans-59" d="M -13 4666 
L 666 4666 
L 1959 2747 
L 3244 4666 
L 3922 4666 
L 2272 2222 
L 2272 0 
L 1638 0 
L 1638 2222 
L -13 4666 
z
" transform="scale(0.015625)"/>
      <path id="DejaVuSans-6f" d="M 1959 3097 
Q 1497 3097 1228 2736 
Q 959 2375 959 1747 
Q 959 1119 1226 758 
Q 1494 397 1959 397 
Q 2419 397 2687 759 
Q 2956 1122 2956 1747 
Q 2956 2369 2687 2733 
Q 2419 3097 1959 3097 
z
M 1959 3584 
Q 2709 3584 3137 3096 
Q 3566 2609 3566 1747 
Q 3566 888 3137 398 
Q 2709 -91 1959 -91 
Q 1206 -91 779 398 
Q 353 888 353 1747 
Q 353 2609 779 3096 
Q 1206 3584 1959 3584 
z
" transform="scale(0.015625)"/>
      <path id="DejaVuSans-77" d="M 269 3500 
L 844 3500 
L 1563 769 
L 2278 3500 
L 2956 3500 
L 3675 769 
L 4391 3500 
L 4966 3500 
L 4050 0 
L 3372 0 
L 2619 2869 
L 1863 0 
L 1184 0 
L 269 3500 
z
" transform="scale(0.015625)"/>
     </defs>
     <use xlink:href="#DejaVuSans-62"/>
     <use xlink:href="#DejaVuSans-2a" x="63.476562"/>
     <use xlink:href="#DejaVuSans-20" x="113.476562"/>
     <use xlink:href="#DejaVuSans-28" x="145.263672"/>
     <use xlink:href="#DejaVuSans-42" x="184.277344"/>
     <use xlink:href="#DejaVuSans-6c" x="252.880859"/>
     <use xlink:href="#DejaVuSans-75" x="280.664062"/>
     <use xlink:href="#DejaVuSans-65" x="344.042969"/>
     <use xlink:href="#DejaVuSans-2d" x="405.566406"/>
     <use xlink:href="#DejaVuSans-59" x="429.775391"/>
     <use xlink:href="#DejaVuSans-65" x="477.609375"/>
     <use xlink:href="#DejaVuSans-6c" x="539.132812"/>
     <use xlink:href="#DejaVuSans-6c" x="566.916016"/>
     <use xlink:href="#DejaVuSans-6f" x="594.699219"/>
     <use xlink:href="#DejaVuSans-77" x="655.880859"/>
     <use xlink:href="#DejaVuSans-29" x="737.667969"/>
    </g>
   </g>
  </g>
  <g id="axis3d_3">
   <g id="line2d_18">
    <path d="M 152.728604 302.957479 
L 148.074256 149.334698 
" style="fill: none; stroke: #000000; stroke-width: 0.8; stroke-linecap: square"/>
   </g>
   <g id="xtick_16">
    <g id="line2d_19">
     <path d="M 153.246209 287.19767 
L 150.308076 288.907157 
" style="fill: none; stroke: #000000; stroke-width: 0.8; stroke-linecap: square"/>
    </g>
    <g id="text_18">
     <!-- 20 -->
     <g transform="translate(125.875098 297.367266) scale(0.1 -0.1)">
      <use xlink:href="#DejaVuSans-32"/>
      <use xlink:href="#DejaVuSans-30" x="63.623047"/>
     </g>
    </g>
   </g>
   <g id="xtick_17">
    <g id="line2d_20">
     <path d="M 152.730129 270.048031 
L 149.780401 271.723142 
" style="fill: none; stroke: #000000; stroke-width: 0.8; stroke-linecap: square"/>
    </g>
    <g id="text_19">
     <!-- 30 -->
     <g transform="translate(125.282892 280.165934) scale(0.1 -0.1)">
      <use xlink:href="#DejaVuSans-33"/>
      <use xlink:href="#DejaVuSans-30" x="63.623047"/>
     </g>
    </g>
   </g>
   <g id="xtick_18">
    <g id="line2d_21">
     <path d="M 152.210398 252.777095 
L 149.248986 254.4173 
" style="fill: none; stroke: #000000; stroke-width: 0.8; stroke-linecap: square"/>
    </g>
    <g id="text_20">
     <!-- 40 -->
     <g transform="translate(124.686483 262.842507) scale(0.1 -0.1)">
      <use xlink:href="#DejaVuSans-34"/>
      <use xlink:href="#DejaVuSans-30" x="63.623047"/>
     </g>
    </g>
   </g>
   <g id="xtick_19">
    <g id="line2d_22">
     <path d="M 151.686979 235.383572 
L 148.713789 236.98833 
" style="fill: none; stroke: #000000; stroke-width: 0.8; stroke-linecap: square"/>
    </g>
    <g id="text_21">
     <!-- 50 -->
     <g transform="translate(124.085826 245.39568) scale(0.1 -0.1)">
      <use xlink:href="#DejaVuSans-35"/>
      <use xlink:href="#DejaVuSans-30" x="63.623047"/>
     </g>
    </g>
   </g>
   <g id="xtick_20">
    <g id="line2d_23">
     <path d="M 151.159831 217.86615 
L 148.174771 219.434914 
" style="fill: none; stroke: #000000; stroke-width: 0.8; stroke-linecap: square"/>
    </g>
    <g id="text_22">
     <!-- 60 -->
     <g transform="translate(123.480875 227.82413) scale(0.1 -0.1)">
      <defs>
       <path id="DejaVuSans-36" d="M 2113 2584 
Q 1688 2584 1439 2293 
Q 1191 2003 1191 1497 
Q 1191 994 1439 701 
Q 1688 409 2113 409 
Q 2538 409 2786 701 
Q 3034 994 3034 1497 
Q 3034 2003 2786 2293 
Q 2538 2584 2113 2584 
z
M 3366 4563 
L 3366 3988 
Q 3128 4100 2886 4159 
Q 2644 4219 2406 4219 
Q 1781 4219 1451 3797 
Q 1122 3375 1075 2522 
Q 1259 2794 1537 2939 
Q 1816 3084 2150 3084 
Q 2853 3084 3261 2657 
Q 3669 2231 3669 1497 
Q 3669 778 3244 343 
Q 2819 -91 2113 -91 
Q 1303 -91 875 529 
Q 447 1150 447 2328 
Q 447 3434 972 4092 
Q 1497 4750 2381 4750 
Q 2619 4750 2861 4703 
Q 3103 4656 3366 4563 
z
" transform="scale(0.015625)"/>
      </defs>
      <use xlink:href="#DejaVuSans-36"/>
      <use xlink:href="#DejaVuSans-30" x="63.623047"/>
     </g>
    </g>
   </g>
   <g id="xtick_21">
    <g id="line2d_24">
     <path d="M 150.628914 200.223502 
L 147.63189 201.755714 
" style="fill: none; stroke: #000000; stroke-width: 0.8; stroke-linecap: square"/>
    </g>
    <g id="text_23">
     <!-- 70 -->
     <g transform="translate(122.871583 210.126515) scale(0.1 -0.1)">
      <defs>
       <path id="DejaVuSans-37" d="M 525 4666 
L 3525 4666 
L 3525 4397 
L 1831 0 
L 1172 0 
L 2766 4134 
L 525 4134 
L 525 4666 
z
" transform="scale(0.015625)"/>
      </defs>
      <use xlink:href="#DejaVuSans-37"/>
      <use xlink:href="#DejaVuSans-30" x="63.623047"/>
     </g>
    </g>
   </g>
   <g id="xtick_22">
    <g id="line2d_25">
     <path d="M 150.094189 182.454279 
L 147.085106 183.949373 
" style="fill: none; stroke: #000000; stroke-width: 0.8; stroke-linecap: square"/>
    </g>
    <g id="text_24">
     <!-- 80 -->
     <g transform="translate(122.257905 192.301474) scale(0.1 -0.1)">
      <defs>
       <path id="DejaVuSans-38" d="M 2034 2216 
Q 1584 2216 1326 1975 
Q 1069 1734 1069 1313 
Q 1069 891 1326 650 
Q 1584 409 2034 409 
Q 2484 409 2743 651 
Q 3003 894 3003 1313 
Q 3003 1734 2745 1975 
Q 2488 2216 2034 2216 
z
M 1403 2484 
Q 997 2584 770 2862 
Q 544 3141 544 3541 
Q 544 4100 942 4425 
Q 1341 4750 2034 4750 
Q 2731 4750 3128 4425 
Q 3525 4100 3525 3541 
Q 3525 3141 3298 2862 
Q 3072 2584 2669 2484 
Q 3125 2378 3379 2068 
Q 3634 1759 3634 1313 
Q 3634 634 3220 271 
Q 2806 -91 2034 -91 
Q 1263 -91 848 271 
Q 434 634 434 1313 
Q 434 1759 690 2068 
Q 947 2378 1403 2484 
z
M 1172 3481 
Q 1172 3119 1398 2916 
Q 1625 2713 2034 2713 
Q 2441 2713 2670 2916 
Q 2900 3119 2900 3481 
Q 2900 3844 2670 4047 
Q 2441 4250 2034 4250 
Q 1625 4250 1398 4047 
Q 1172 3844 1172 3481 
z
" transform="scale(0.015625)"/>
      </defs>
      <use xlink:href="#DejaVuSans-38"/>
      <use xlink:href="#DejaVuSans-30" x="63.623047"/>
     </g>
    </g>
   </g>
   <g id="xtick_23">
    <g id="line2d_26">
     <path d="M 149.555614 164.557115 
L 146.534374 166.014516 
" style="fill: none; stroke: #000000; stroke-width: 0.8; stroke-linecap: square"/>
    </g>
    <g id="text_25">
     <!-- 90 -->
     <g transform="translate(121.639792 174.347624) scale(0.1 -0.1)">
      <defs>
       <path id="DejaVuSans-39" d="M 703 97 
L 703 672 
Q 941 559 1184 500 
Q 1428 441 1663 441 
Q 2288 441 2617 861 
Q 2947 1281 2994 2138 
Q 2813 1869 2534 1725 
Q 2256 1581 1919 1581 
Q 1219 1581 811 2004 
Q 403 2428 403 3163 
Q 403 3881 828 4315 
Q 1253 4750 1959 4750 
Q 2769 4750 3195 4129 
Q 3622 3509 3622 2328 
Q 3622 1225 3098 567 
Q 2575 -91 1691 -91 
Q 1453 -91 1209 -44 
Q 966 3 703 97 
z
M 1959 2075 
Q 2384 2075 2632 2365 
Q 2881 2656 2881 3163 
Q 2881 3666 2632 3958 
Q 2384 4250 1959 4250 
Q 1534 4250 1286 3958 
Q 1038 3666 1038 3163 
Q 1038 2656 1286 2365 
Q 1534 2075 1959 2075 
z
" transform="scale(0.015625)"/>
      </defs>
      <use xlink:href="#DejaVuSans-39"/>
      <use xlink:href="#DejaVuSans-30" x="63.623047"/>
     </g>
    </g>
   </g>
   <g id="text_26">
    <!-- L* (Lightness) -->
    <g transform="translate(102.385529 196.788125) rotate(-271.735374) scale(0.1 -0.1)">
     <defs>
      <path id="DejaVuSans-4c" d="M 628 4666 
L 1259 4666 
L 1259 531 
L 3531 531 
L 3531 0 
L 628 0 
L 628 4666 
z
" transform="scale(0.015625)"/>
      <path id="DejaVuSans-69" d="M 603 3500 
L 1178 3500 
L 1178 0 
L 603 0 
L 603 3500 
z
M 603 4863 
L 1178 4863 
L 1178 4134 
L 603 4134 
L 603 4863 
z
" transform="scale(0.015625)"/>
      <path id="DejaVuSans-67" d="M 2906 1791 
Q 2906 2416 2648 2759 
Q 2391 3103 1925 3103 
Q 1463 3103 1205 2759 
Q 947 2416 947 1791 
Q 947 1169 1205 825 
Q 1463 481 1925 481 
Q 2391 481 2648 825 
Q 2906 1169 2906 1791 
z
M 3481 434 
Q 3481 -459 3084 -895 
Q 2688 -1331 1869 -1331 
Q 1566 -1331 1297 -1286 
Q 1028 -1241 775 -1147 
L 775 -588 
Q 1028 -725 1275 -790 
Q 1522 -856 1778 -856 
Q 2344 -856 2625 -561 
Q 2906 -266 2906 331 
L 2906 616 
Q 2728 306 2450 153 
Q 2172 0 1784 0 
Q 1141 0 747 490 
Q 353 981 353 1791 
Q 353 2603 747 3093 
Q 1141 3584 1784 3584 
Q 2172 3584 2450 3431 
Q 2728 3278 2906 2969 
L 2906 3500 
L 3481 3500 
L 3481 434 
z
" transform="scale(0.015625)"/>
      <path id="DejaVuSans-68" d="M 3513 2113 
L 3513 0 
L 2938 0 
L 2938 2094 
Q 2938 2591 2744 2837 
Q 2550 3084 2163 3084 
Q 1697 3084 1428 2787 
Q 1159 2491 1159 1978 
L 1159 0 
L 581 0 
L 581 4863 
L 1159 4863 
L 1159 2956 
Q 1366 3272 1645 3428 
Q 1925 3584 2291 3584 
Q 2894 3584 3203 3211 
Q 3513 2838 3513 2113 
z
" transform="scale(0.015625)"/>
      <path id="DejaVuSans-74" d="M 1172 4494 
L 1172 3500 
L 2356 3500 
L 2356 3053 
L 1172 3053 
L 1172 1153 
Q 1172 725 1289 603 
Q 1406 481 1766 481 
L 2356 481 
L 2356 0 
L 1766 0 
Q 1100 0 847 248 
Q 594 497 594 1153 
L 594 3053 
L 172 3053 
L 172 3500 
L 594 3500 
L 594 4494 
L 1172 4494 
z
" transform="scale(0.015625)"/>
      <path id="DejaVuSans-73" d="M 2834 3397 
L 2834 2853 
Q 2591 2978 2328 3040 
Q 2066 3103 1784 3103 
Q 1356 3103 1142 2972 
Q 928 2841 928 2578 
Q 928 2378 1081 2264 
Q 1234 2150 1697 2047 
L 1894 2003 
Q 2506 1872 2764 1633 
Q 3022 1394 3022 966 
Q 3022 478 2636 193 
Q 2250 -91 1575 -91 
Q 1294 -91 989 -36 
Q 684 19 347 128 
L 347 722 
Q 666 556 975 473 
Q 1284 391 1588 391 
Q 1994 391 2212 530 
Q 2431 669 2431 922 
Q 2431 1156 2273 1281 
Q 2116 1406 1581 1522 
L 1381 1569 
Q 847 1681 609 1914 
Q 372 2147 372 2553 
Q 372 3047 722 3315 
Q 1072 3584 1716 3584 
Q 2034 3584 2315 3537 
Q 2597 3491 2834 3397 
z
" transform="scale(0.015625)"/>
     </defs>
     <use xlink:href="#DejaVuSans-4c"/>
     <use xlink:href="#DejaVuSans-2a" x="55.712891"/>
     <use xlink:href="#DejaVuSans-20" x="105.712891"/>
     <use xlink:href="#DejaVuSans-28" x="137.5"/>
     <use xlink:href="#DejaVuSans-4c" x="176.513672"/>
     <use xlink:href="#DejaVuSans-69" x="232.226562"/>
     <use xlink:href="#DejaVuSans-67" x="260.009766"/>
     <use xlink:href="#DejaVuSans-68" x="323.486328"/>
     <use xlink:href="#DejaVuSans-74" x="386.865234"/>
     <use xlink:href="#DejaVuSans-6e" x="426.074219"/>
     <use xlink:href="#DejaVuSans-65" x="489.453125"/>
     <use xlink:href="#DejaVuSans-73" x="550.976562"/>
     <use xlink:href="#DejaVuSans-73" x="603.076172"/>
     <use xlink:href="#DejaVuSans-29" x="655.175781"/>
    </g>
   </g>
  </g>
  <g id="axes_1">
   <g id="Path3DCollection_1">
    <defs>
     <path id="C0_0_87051de0bc" d="M 0 1.581139 
C 0.419323 1.581139 0.821528 1.41454 1.118034 1.118034 
C 1.41454 0.821528 1.581139 0.419323 1.581139 -0 
C 1.581139 -0.419323 1.41454 -0.821528 1.118034 -1.118034 
C 0.821528 -1.41454 0.419323 -1.581139 0 -1.581139 
C -0.419323 -1.581139 -0.821528 -1.41454 -1.118034 -1.118034 
C -1.41454 -0.821528 -1.581139 -0.419323 -1.581139 0 
C -1.581139 0.419323 -1.41454 0.821528 -1.118034 1.118034 
C -0.821528 1.41454 -0.419323 1.581139 0 1.581139 
z
"/>
    </defs>
    <g clip-path="url(#p7ae179a942)">
     <use xlink:href="#C0_0_87051de0bc" x="351.7849" y="222.573294" style="fill: #475a50; fill-opacity: 0.3"/>
    </g>
    <g clip-path="url(#p7ae179a942)">
     <use xlink:href="#C0_0_87051de0bc" x="370.62862" y="211.057361" style="fill: #5b6b55; fill-opacity: 0.317602"/>
    </g>
    <g clip-path="url(#p7ae179a942)">
     <use xlink:href="#C0_0_87051de0bc" x="269.878923" y="211.35584" style="fill: #416e96; fill-opacity: 0.349094"/>
    </g>
    <g clip-path="url(#p7ae179a942)">
     <use xlink:href="#C0_0_87051de0bc" x="371.53214" y="220.784771" style="fill: #5e664a; fill-opacity: 0.386845"/>
    </g>
    <g clip-path="url(#p7ae179a942)">
     <use xlink:href="#C0_0_87051de0bc" x="368.652638" y="226.302601" style="fill: #585f44; fill-opacity: 0.38809"/>
    </g>
    <g clip-path="url(#p7ae179a942)">
     <use xlink:href="#C0_0_87051de0bc" x="338.651435" y="274.999307" style="fill: #2b2a1b; fill-opacity: 0.450238"/>
    </g>
    <g clip-path="url(#p7ae179a942)">
     <use xlink:href="#C0_0_87051de0bc" x="335.027011" y="274.33359" style="fill: #2e2c1f; fill-opacity: 0.463924"/>
    </g>
    <g clip-path="url(#p7ae179a942)">
     <use xlink:href="#C0_0_87051de0bc" x="351.496519" y="262.423418" style="fill: #3e3b24; fill-opacity: 0.473623"/>
    </g>
    <g clip-path="url(#p7ae179a942)">
     <use xlink:href="#C0_0_87051de0bc" x="339.064912" y="272.158491" style="fill: #353120; fill-opacity: 0.487808"/>
    </g>
    <g clip-path="url(#p7ae179a942)">
     <use xlink:href="#C0_0_87051de0bc" x="262.072678" y="211.389163" style="fill: #697da1; fill-opacity: 0.496701"/>
    </g>
    <g clip-path="url(#p7ae179a942)">
     <use xlink:href="#C0_0_87051de0bc" x="362.377191" y="256.685153" style="fill: #4d4626; fill-opacity: 0.51864"/>
    </g>
    <g clip-path="url(#p7ae179a942)">
     <use xlink:href="#C0_0_87051de0bc" x="306.248354" y="216.798568" style="fill: #76797e; fill-opacity: 0.527944"/>
    </g>
    <g clip-path="url(#p7ae179a942)">
     <use xlink:href="#C0_0_87051de0bc" x="307.206105" y="280.788438" style="fill: #322c29; fill-opacity: 0.540717"/>
    </g>
    <g clip-path="url(#p7ae179a942)">
     <use xlink:href="#C0_0_87051de0bc" x="192.991069" y="211.375629" style="fill: #5e85d0; fill-opacity: 0.574942"/>
    </g>
    <g clip-path="url(#p7ae179a942)">
     <use xlink:href="#C0_0_87051de0bc" x="299.164211" y="180.669651" style="fill: #aeb1ba; fill-opacity: 0.59012"/>
    </g>
    <g clip-path="url(#p7ae179a942)">
     <use xlink:href="#C0_0_87051de0bc" x="311.155236" y="177.411693" style="fill: #b6b7b7; fill-opacity: 0.596496"/>
    </g>
    <g clip-path="url(#p7ae179a942)">
     <use xlink:href="#C0_0_87051de0bc" x="309.645197" y="220.655974" style="fill: #827c79; fill-opacity: 0.605735"/>
    </g>
    <g clip-path="url(#p7ae179a942)">
     <use xlink:href="#C0_0_87051de0bc" x="326.157198" y="264.654881" style="fill: #514535; fill-opacity: 0.607388"/>
    </g>
    <g clip-path="url(#p7ae179a942)">
     <use xlink:href="#C0_0_87051de0bc" x="284.515925" y="212.012182" style="fill: #898896; fill-opacity: 0.6091"/>
    </g>
    <g clip-path="url(#p7ae179a942)">
     <use xlink:href="#C0_0_87051de0bc" x="297.083902" y="275.129764" style="fill: #443938; fill-opacity: 0.610155"/>
    </g>
    <g clip-path="url(#p7ae179a942)">
     <use xlink:href="#C0_0_87051de0bc" x="312.224975" y="184.301942" style="fill: #b1afad; fill-opacity: 0.612696"/>
    </g>
    <g clip-path="url(#p7ae179a942)">
     <use xlink:href="#C0_0_87051de0bc" x="309.942279" y="197.802175" style="fill: #a09c9a; fill-opacity: 0.61725"/>
    </g>
    <g clip-path="url(#p7ae179a942)">
     <use xlink:href="#C0_0_87051de0bc" x="297.091359" y="279.749422" style="fill: #413433; fill-opacity: 0.621729"/>
    </g>
    <g clip-path="url(#p7ae179a942)">
     <use xlink:href="#C0_0_87051de0bc" x="310.298391" y="192.622234" style="fill: #a8a4a2; fill-opacity: 0.623371"/>
    </g>
    <g clip-path="url(#p7ae179a942)">
     <use xlink:href="#C0_0_87051de0bc" x="323.90529" y="163.038866" style="fill: #d1cfc6; fill-opacity: 0.62957"/>
    </g>
    <g clip-path="url(#p7ae179a942)">
     <use xlink:href="#C0_0_87051de0bc" x="311.764915" y="195.623281" style="fill: #a7a19d; fill-opacity: 0.635404"/>
    </g>
    <g clip-path="url(#p7ae179a942)">
     <use xlink:href="#C0_0_87051de0bc" x="300.867385" y="217.077065" style="fill: #8d8585; fill-opacity: 0.64486"/>
    </g>
    <g clip-path="url(#p7ae179a942)">
     <use xlink:href="#C0_0_87051de0bc" x="322.748484" y="171.154476" style="fill: #cbc5bb; fill-opacity: 0.649576"/>
    </g>
    <g clip-path="url(#p7ae179a942)">
     <use xlink:href="#C0_0_87051de0bc" x="321.335076" y="177.9365" style="fill: #c2bcb1; fill-opacity: 0.651715"/>
    </g>
    <g clip-path="url(#p7ae179a942)">
     <use xlink:href="#C0_0_87051de0bc" x="348.649241" y="148.34936" style="fill: #eee7cc; fill-opacity: 0.656123"/>
    </g>
    <g clip-path="url(#p7ae179a942)">
     <use xlink:href="#C0_0_87051de0bc" x="302.072821" y="174.049703" style="fill: #c8c3c5; fill-opacity: 0.670781"/>
    </g>
    <g clip-path="url(#p7ae179a942)">
     <use xlink:href="#C0_0_87051de0bc" x="339.964025" y="146.750225" style="fill: #f2ebd5; fill-opacity: 0.673462"/>
    </g>
    <g clip-path="url(#p7ae179a942)">
     <use xlink:href="#C0_0_87051de0bc" x="311.054604" y="255.341141" style="fill: #69584c; fill-opacity: 0.684066"/>
    </g>
    <g clip-path="url(#p7ae179a942)">
     <use xlink:href="#C0_0_87051de0bc" x="338.359572" y="160.069235" style="fill: #e4dac2; fill-opacity: 0.692671"/>
    </g>
    <g clip-path="url(#p7ae179a942)">
     <use xlink:href="#C0_0_87051de0bc" x="312.932086" y="189.99926" style="fill: #bcb0a6; fill-opacity: 0.700975"/>
    </g>
    <g clip-path="url(#p7ae179a942)">
     <use xlink:href="#C0_0_87051de0bc" x="309.586687" y="271.020856" style="fill: #5b473a; fill-opacity: 0.709124"/>
    </g>
    <g clip-path="url(#p7ae179a942)">
     <use xlink:href="#C0_0_87051de0bc" x="328.906395" y="186.432476" style="fill: #c7b7a2; fill-opacity: 0.720389"/>
    </g>
    <g clip-path="url(#p7ae179a942)">
     <use xlink:href="#C0_0_87051de0bc" x="315.624663" y="164.345111" style="fill: #e2d6cc; fill-opacity: 0.723116"/>
    </g>
    <g clip-path="url(#p7ae179a942)">
     <use xlink:href="#C0_0_87051de0bc" x="332.47418" y="182.142641" style="fill: #cebea6; fill-opacity: 0.727528"/>
    </g>
    <g clip-path="url(#p7ae179a942)">
     <use xlink:href="#C0_0_87051de0bc" x="361.888215" y="249.659325" style="fill: #7d6636; fill-opacity: 0.743967"/>
    </g>
    <g clip-path="url(#p7ae179a942)">
     <use xlink:href="#C0_0_87051de0bc" x="343.241673" y="199.155424" style="fill: #bda886; fill-opacity: 0.745114"/>
    </g>
    <g clip-path="url(#p7ae179a942)">
     <use xlink:href="#C0_0_87051de0bc" x="311.957834" y="277.442081" style="fill: #5d4533; fill-opacity: 0.760603"/>
    </g>
    <g clip-path="url(#p7ae179a942)">
     <use xlink:href="#C0_0_87051de0bc" x="300.238455" y="271.225233" style="fill: #654c41; fill-opacity: 0.766629"/>
    </g>
    <g clip-path="url(#p7ae179a942)">
     <use xlink:href="#C0_0_87051de0bc" x="305.018695" y="258.064558" style="fill: #765d4f; fill-opacity: 0.773726"/>
    </g>
    <g clip-path="url(#p7ae179a942)">
     <use xlink:href="#C0_0_87051de0bc" x="354.162365" y="196.050394" style="fill: #ccb285; fill-opacity: 0.80094"/>
    </g>
    <g clip-path="url(#p7ae179a942)">
     <use xlink:href="#C0_0_87051de0bc" x="321.283312" y="256.286327" style="fill: #7e6249; fill-opacity: 0.801761"/>
    </g>
    <g clip-path="url(#p7ae179a942)">
     <use xlink:href="#C0_0_87051de0bc" x="378.056684" y="218.90873" style="fill: #b29556; fill-opacity: 0.813496"/>
    </g>
    <g clip-path="url(#p7ae179a942)">
     <use xlink:href="#C0_0_87051de0bc" x="299.218931" y="265.963614" style="fill: #73584a; fill-opacity: 0.815693"/>
    </g>
    <g clip-path="url(#p7ae179a942)">
     <use xlink:href="#C0_0_87051de0bc" x="358.310248" y="193.130532" style="fill: #d3b787; fill-opacity: 0.816462"/>
    </g>
    <g clip-path="url(#p7ae179a942)">
     <use xlink:href="#C0_0_87051de0bc" x="311.479899" y="228.666615" style="fill: #a48874; fill-opacity: 0.828338"/>
    </g>
    <g clip-path="url(#p7ae179a942)">
     <use xlink:href="#C0_0_87051de0bc" x="286.020188" y="250.474156" style="fill: #886c67; fill-opacity: 0.835738"/>
    </g>
    <g clip-path="url(#p7ae179a942)">
     <use xlink:href="#C0_0_87051de0bc" x="310.572482" y="267.403636" style="fill: #775943; fill-opacity: 0.844455"/>
    </g>
    <g clip-path="url(#p7ae179a942)">
     <use xlink:href="#C0_0_87051de0bc" x="338.872922" y="183.781444" style="fill: #e4c7a2; fill-opacity: 0.848223"/>
    </g>
    <g clip-path="url(#p7ae179a942)">
     <use xlink:href="#C0_0_87051de0bc" x="351.971887" y="250.195674" style="fill: #947240; fill-opacity: 0.876344"/>
    </g>
    <g clip-path="url(#p7ae179a942)">
     <use xlink:href="#C0_0_87051de0bc" x="326.732482" y="268.916373" style="fill: #7d5b38; fill-opacity: 0.885365"/>
    </g>
    <g clip-path="url(#p7ae179a942)">
     <use xlink:href="#C0_0_87051de0bc" x="328.327336" y="214.874064" style="fill: #c5a27f; fill-opacity: 0.906495"/>
    </g>
    <g clip-path="url(#p7ae179a942)">
     <use xlink:href="#C0_0_87051de0bc" x="293.47842" y="241.153161" style="fill: #a27f71; fill-opacity: 0.906975"/>
    </g>
    <g clip-path="url(#p7ae179a942)">
     <use xlink:href="#C0_0_87051de0bc" x="326.786948" y="263.507336" style="fill: #8d6741; fill-opacity: 0.937691"/>
    </g>
    <g clip-path="url(#p7ae179a942)">
     <use xlink:href="#C0_0_87051de0bc" x="317.22881" y="255.27646" style="fill: #977151; fill-opacity: 0.937942"/>
    </g>
    <g clip-path="url(#p7ae179a942)">
     <use xlink:href="#C0_0_87051de0bc" x="290.668909" y="241.161043" style="fill: #b28876"/>
    </g>
   </g>
   <g id="text_27">
    <!-- Convex hull in Lab color-space  -->
    <g transform="translate(201.915937 18.96525) scale(0.12 -0.12)">
     <defs>
      <path id="DejaVuSans-43" d="M 4122 4306 
L 4122 3641 
Q 3803 3938 3442 4084 
Q 3081 4231 2675 4231 
Q 1875 4231 1450 3742 
Q 1025 3253 1025 2328 
Q 1025 1406 1450 917 
Q 1875 428 2675 428 
Q 3081 428 3442 575 
Q 3803 722 4122 1019 
L 4122 359 
Q 3791 134 3420 21 
Q 3050 -91 2638 -91 
Q 1578 -91 968 557 
Q 359 1206 359 2328 
Q 359 3453 968 4101 
Q 1578 4750 2638 4750 
Q 3056 4750 3426 4639 
Q 3797 4528 4122 4306 
z
" transform="scale(0.015625)"/>
      <path id="DejaVuSans-76" d="M 191 3500 
L 800 3500 
L 1894 563 
L 2988 3500 
L 3597 3500 
L 2284 0 
L 1503 0 
L 191 3500 
z
" transform="scale(0.015625)"/>
      <path id="DejaVuSans-78" d="M 3513 3500 
L 2247 1797 
L 3578 0 
L 2900 0 
L 1881 1375 
L 863 0 
L 184 0 
L 1544 1831 
L 300 3500 
L 978 3500 
L 1906 2253 
L 2834 3500 
L 3513 3500 
z
" transform="scale(0.015625)"/>
      <path id="DejaVuSans-63" d="M 3122 3366 
L 3122 2828 
Q 2878 2963 2633 3030 
Q 2388 3097 2138 3097 
Q 1578 3097 1268 2742 
Q 959 2388 959 1747 
Q 959 1106 1268 751 
Q 1578 397 2138 397 
Q 2388 397 2633 464 
Q 2878 531 3122 666 
L 3122 134 
Q 2881 22 2623 -34 
Q 2366 -91 2075 -91 
Q 1284 -91 818 406 
Q 353 903 353 1747 
Q 353 2603 823 3093 
Q 1294 3584 2113 3584 
Q 2378 3584 2631 3529 
Q 2884 3475 3122 3366 
z
" transform="scale(0.015625)"/>
      <path id="DejaVuSans-70" d="M 1159 525 
L 1159 -1331 
L 581 -1331 
L 581 3500 
L 1159 3500 
L 1159 2969 
Q 1341 3281 1617 3432 
Q 1894 3584 2278 3584 
Q 2916 3584 3314 3078 
Q 3713 2572 3713 1747 
Q 3713 922 3314 415 
Q 2916 -91 2278 -91 
Q 1894 -91 1617 61 
Q 1341 213 1159 525 
z
M 3116 1747 
Q 3116 2381 2855 2742 
Q 2594 3103 2138 3103 
Q 1681 3103 1420 2742 
Q 1159 2381 1159 1747 
Q 1159 1113 1420 752 
Q 1681 391 2138 391 
Q 2594 391 2855 752 
Q 3116 1113 3116 1747 
z
" transform="scale(0.015625)"/>
     </defs>
     <use xlink:href="#DejaVuSans-43"/>
     <use xlink:href="#DejaVuSans-6f" x="69.824219"/>
     <use xlink:href="#DejaVuSans-6e" x="131.005859"/>
     <use xlink:href="#DejaVuSans-76" x="194.384766"/>
     <use xlink:href="#DejaVuSans-65" x="253.564453"/>
     <use xlink:href="#DejaVuSans-78" x="313.337891"/>
     <use xlink:href="#DejaVuSans-20" x="372.517578"/>
     <use xlink:href="#DejaVuSans-68" x="404.304688"/>
     <use xlink:href="#DejaVuSans-75" x="467.683594"/>
     <use xlink:href="#DejaVuSans-6c" x="531.0625"/>
     <use xlink:href="#DejaVuSans-6c" x="558.845703"/>
     <use xlink:href="#DejaVuSans-20" x="586.628906"/>
     <use xlink:href="#DejaVuSans-69" x="618.416016"/>
     <use xlink:href="#DejaVuSans-6e" x="646.199219"/>
     <use xlink:href="#DejaVuSans-20" x="709.578125"/>
     <use xlink:href="#DejaVuSans-4c" x="741.365234"/>
     <use xlink:href="#DejaVuSans-61" x="797.078125"/>
     <use xlink:href="#DejaVuSans-62" x="858.357422"/>
     <use xlink:href="#DejaVuSans-20" x="921.833984"/>
     <use xlink:href="#DejaVuSans-63" x="953.621094"/>
     <use xlink:href="#DejaVuSans-6f" x="1008.601562"/>
     <use xlink:href="#DejaVuSans-6c" x="1069.783203"/>
     <use xlink:href="#DejaVuSans-6f" x="1097.566406"/>
     <use xlink:href="#DejaVuSans-72" x="1158.748047"/>
     <use xlink:href="#DejaVuSans-2d" x="1193.486328"/>
     <use xlink:href="#DejaVuSans-73" x="1229.570312"/>
     <use xlink:href="#DejaVuSans-70" x="1281.669922"/>
     <use xlink:href="#DejaVuSans-61" x="1345.146484"/>
     <use xlink:href="#DejaVuSans-63" x="1406.425781"/>
     <use xlink:href="#DejaVuSans-65" x="1461.40625"/>
     <use xlink:href="#DejaVuSans-20" x="1522.929688"/>
    </g>
    <!-- Volume:36740.358992969785 -->
    <g transform="translate(204.058125 32.402625) scale(0.12 -0.12)">
     <defs>
      <path id="DejaVuSans-56" d="M 1831 0 
L 50 4666 
L 709 4666 
L 2188 738 
L 3669 4666 
L 4325 4666 
L 2547 0 
L 1831 0 
z
" transform="scale(0.015625)"/>
      <path id="DejaVuSans-6d" d="M 3328 2828 
Q 3544 3216 3844 3400 
Q 4144 3584 4550 3584 
Q 5097 3584 5394 3201 
Q 5691 2819 5691 2113 
L 5691 0 
L 5113 0 
L 5113 2094 
Q 5113 2597 4934 2840 
Q 4756 3084 4391 3084 
Q 3944 3084 3684 2787 
Q 3425 2491 3425 1978 
L 3425 0 
L 2847 0 
L 2847 2094 
Q 2847 2600 2669 2842 
Q 2491 3084 2119 3084 
Q 1678 3084 1418 2786 
Q 1159 2488 1159 1978 
L 1159 0 
L 581 0 
L 581 3500 
L 1159 3500 
L 1159 2956 
Q 1356 3278 1631 3431 
Q 1906 3584 2284 3584 
Q 2666 3584 2933 3390 
Q 3200 3197 3328 2828 
z
" transform="scale(0.015625)"/>
      <path id="DejaVuSans-3a" d="M 750 794 
L 1409 794 
L 1409 0 
L 750 0 
L 750 794 
z
M 750 3309 
L 1409 3309 
L 1409 2516 
L 750 2516 
L 750 3309 
z
" transform="scale(0.015625)"/>
      <path id="DejaVuSans-2e" d="M 684 794 
L 1344 794 
L 1344 0 
L 684 0 
L 684 794 
z
" transform="scale(0.015625)"/>
     </defs>
     <use xlink:href="#DejaVuSans-56"/>
     <use xlink:href="#DejaVuSans-6f" x="60.658203"/>
     <use xlink:href="#DejaVuSans-6c" x="121.839844"/>
     <use xlink:href="#DejaVuSans-75" x="149.623047"/>
     <use xlink:href="#DejaVuSans-6d" x="213.001953"/>
     <use xlink:href="#DejaVuSans-65" x="310.414062"/>
     <use xlink:href="#DejaVuSans-3a" x="371.9375"/>
     <use xlink:href="#DejaVuSans-33" x="405.628906"/>
     <use xlink:href="#DejaVuSans-36" x="469.251953"/>
     <use xlink:href="#DejaVuSans-37" x="532.875"/>
     <use xlink:href="#DejaVuSans-34" x="596.498047"/>
     <use xlink:href="#DejaVuSans-30" x="660.121094"/>
     <use xlink:href="#DejaVuSans-2e" x="723.744141"/>
     <use xlink:href="#DejaVuSans-33" x="755.53125"/>
     <use xlink:href="#DejaVuSans-35" x="819.154297"/>
     <use xlink:href="#DejaVuSans-38" x="882.777344"/>
     <use xlink:href="#DejaVuSans-39" x="946.400391"/>
     <use xlink:href="#DejaVuSans-39" x="1010.023438"/>
     <use xlink:href="#DejaVuSans-32" x="1073.646484"/>
     <use xlink:href="#DejaVuSans-39" x="1137.269531"/>
     <use xlink:href="#DejaVuSans-36" x="1200.892578"/>
     <use xlink:href="#DejaVuSans-39" x="1264.515625"/>
     <use xlink:href="#DejaVuSans-37" x="1328.138672"/>
     <use xlink:href="#DejaVuSans-38" x="1391.761719"/>
     <use xlink:href="#DejaVuSans-35" x="1455.384766"/>
    </g>
    <!-- Area in a*b*: 1171.8657451178078 -->
    <g transform="translate(187.89375 45.84) scale(0.12 -0.12)">
     <defs>
      <path id="DejaVuSans-41" d="M 2188 4044 
L 1331 1722 
L 3047 1722 
L 2188 4044 
z
M 1831 4666 
L 2547 4666 
L 4325 0 
L 3669 0 
L 3244 1197 
L 1141 1197 
L 716 0 
L 50 0 
L 1831 4666 
z
" transform="scale(0.015625)"/>
     </defs>
     <use xlink:href="#DejaVuSans-41"/>
     <use xlink:href="#DejaVuSans-72" x="68.408203"/>
     <use xlink:href="#DejaVuSans-65" x="107.271484"/>
     <use xlink:href="#DejaVuSans-61" x="168.794922"/>
     <use xlink:href="#DejaVuSans-20" x="230.074219"/>
     <use xlink:href="#DejaVuSans-69" x="261.861328"/>
     <use xlink:href="#DejaVuSans-6e" x="289.644531"/>
     <use xlink:href="#DejaVuSans-20" x="353.023438"/>
     <use xlink:href="#DejaVuSans-61" x="384.810547"/>
     <use xlink:href="#DejaVuSans-2a" x="446.089844"/>
     <use xlink:href="#DejaVuSans-62" x="496.089844"/>
     <use xlink:href="#DejaVuSans-2a" x="559.566406"/>
     <use xlink:href="#DejaVuSans-3a" x="609.566406"/>
     <use xlink:href="#DejaVuSans-20" x="643.257812"/>
     <use xlink:href="#DejaVuSans-31" x="675.044922"/>
     <use xlink:href="#DejaVuSans-31" x="738.667969"/>
     <use xlink:href="#DejaVuSans-37" x="802.291016"/>
     <use xlink:href="#DejaVuSans-31" x="865.914062"/>
     <use xlink:href="#DejaVuSans-2e" x="929.537109"/>
     <use xlink:href="#DejaVuSans-38" x="961.324219"/>
     <use xlink:href="#DejaVuSans-36" x="1024.947266"/>
     <use xlink:href="#DejaVuSans-35" x="1088.570312"/>
     <use xlink:href="#DejaVuSans-37" x="1152.193359"/>
     <use xlink:href="#DejaVuSans-34" x="1215.816406"/>
     <use xlink:href="#DejaVuSans-35" x="1279.439453"/>
     <use xlink:href="#DejaVuSans-31" x="1343.0625"/>
     <use xlink:href="#DejaVuSans-31" x="1406.685547"/>
     <use xlink:href="#DejaVuSans-37" x="1470.308594"/>
     <use xlink:href="#DejaVuSans-38" x="1533.931641"/>
     <use xlink:href="#DejaVuSans-30" x="1597.554688"/>
     <use xlink:href="#DejaVuSans-37" x="1661.177734"/>
     <use xlink:href="#DejaVuSans-38" x="1724.800781"/>
    </g>
   </g>
  </g>
 </g>
 <defs>
  <clipPath id="p7ae179a942">
   <rect x="128.88" y="51.84" width="332.64" height="332.64"/>
  </clipPath>
 </defs>
</svg>
